<svg xmlns="http://www.w3.org/2000/svg" width="20" height="20" viewBox="0 0 20 20">
    <g fill="#9B9B9B" fill-rule="nonzero">
        <path d="M4.54 7.417h.168v8.715c0 1.155.945 2.1 2.1 2.1h6.384c1.155 0 2.1-.945 2.1-2.1V7.417h.168a1.04 1.04 0 0 0 1.05-1.05V4.645a1.04 1.04 0 0 0-1.05-1.05h-2.604v-.651c0-.63-.525-1.155-1.155-1.155H8.299c-.63 0-1.155.525-1.155 1.155v.651H4.54a1.04 1.04 0 0 0-1.05 1.05v1.722c0 .567.483 1.05 1.05 1.05zm9.912 8.715c0 .693-.567 1.26-1.26 1.26H6.808c-.693 0-1.26-.567-1.26-1.26V7.417h8.904v8.715zM7.984 2.944c0-.168.147-.315.315-.315h3.381c.168 0 .315.147.315.315v.651H7.984v-.651zM4.33 4.645c0-.126.084-.21.21-.21h10.92c.126 0 .21.084.21.21v1.722c0 .126-.084.21-.21.21H4.54c-.126 0-.21-.084-.21-.21V4.645z"/>
        <path d="M11.743 9.223h1v6.132h-1zM9.58 9.223h1v6.132h-1zM7.417 9.223h1v6.132h-1z"/>
    </g>
</svg>
